<?xml version="1.0" encoding="UTF-8"?>
<svg version="1.1" xmlns="http://www.w3.org/2000/svg" width="711" height="423">
<path d="M0 0 C234.63 0 469.26 0 711 0 C711 139.59 711 279.18 711 423 C476.37 423 241.74 423 0 423 C0 283.41 0 143.82 0 0 Z " fill="#E0F2FE" transform="translate(0,0)"/>
<path d="M0 0 C24.75 0 49.5 0 75 0 C75 4.95 75 9.9 75 15 C79.95 15 84.9 15 90 15 C90 19.95 90 24.9 90 30 C94.95 30 99.9 30 105 30 C105 44.85 105 59.7 105 75 C100.05 75 95.1 75 90 75 C90 84.9 90 94.8 90 105 C85.05 105 80.1 105 75 105 C75 109.95 75 114.9 75 120 C84.9 120 94.8 120 105 120 C105 129.9 105 139.8 105 150 C109.95 150 114.9 150 120 150 C120 154.95 120 159.9 120 165 C124.95 165 129.9 165 135 165 C135 160.05 135 155.1 135 150 C139.95 150 144.9 150 150 150 C150 125.25 150 100.5 150 75 C164.85 75 179.7 75 195 75 C195 84.9 195 94.8 195 105 C199.95 105 204.9 105 210 105 C210 109.95 210 114.9 210 120 C205.05 120 200.1 120 195 120 C195 134.85 195 149.7 195 165 C185.1 165 175.2 165 165 165 C165 174.9 165 184.8 165 195 C160.05 195 155.1 195 150 195 C150 199.95 150 204.9 150 210 C135.15 210 120.3 210 105 210 C105 229.8 105 249.6 105 270 C100.05 270 95.1 270 90 270 C90 274.95 90 279.9 90 285 C94.95 285 99.9 285 105 285 C105 309.75 105 334.5 105 360 C90.15 360 75.3 360 60 360 C60 369.9 60 379.8 60 390 C55.05 390 50.1 390 45 390 C45 370.2 45 350.4 45 330 C35.1 330 25.2 330 15 330 C15 349.8 15 369.6 15 390 C10.05 390 5.1 390 0 390 C0 380.1 0 370.2 0 360 C-14.85 360 -29.7 360 -45 360 C-45 340.2 -45 320.4 -45 300 C-49.95 300 -54.9 300 -60 300 C-60 295.05 -60 290.1 -60 285 C-64.95 285 -69.9 285 -75 285 C-75 240.45 -75 195.9 -75 150 C-60.15 150 -45.3 150 -30 150 C-30 140.1 -30 130.2 -30 120 C-20.1 120 -10.2 120 0 120 C0 115.05 0 110.1 0 105 C-4.95 105 -9.9 105 -15 105 C-15 95.1 -15 85.2 -15 75 C-19.95 75 -24.9 75 -30 75 C-30 60.15 -30 45.3 -30 30 C-25.05 30 -20.1 30 -15 30 C-15 25.05 -15 20.1 -15 15 C-10.05 15 -5.1 15 0 15 C0 10.05 0 5.1 0 0 Z " fill="#E0F2FE" transform="translate(124,26)"/>
<path d="M0 0 C19.8 0 39.6 0 60 0 C60 4.95 60 9.9 60 15 C64.95 15 69.9 15 75 15 C75 29.85 75 44.7 75 60 C84.9 60 94.8 60 105 60 C105 64.95 105 69.9 105 75 C109.95 75 114.9 75 120 75 C120 79.95 120 84.9 120 90 C124.95 90 129.9 90 135 90 C135 85.05 135 80.1 135 75 C139.95 75 144.9 75 150 75 C150 84.9 150 94.8 150 105 C140.1 105 130.2 105 120 105 C120 129.75 120 154.5 120 180 C115.05 180 110.1 180 105 180 C105 184.95 105 189.9 105 195 C80.25 195 55.5 195 30 195 C30 190.05 30 185.1 30 180 C25.05 180 20.1 180 15 180 C15 184.95 15 189.9 15 195 C-9.75 195 -34.5 195 -60 195 C-60 180.15 -60 165.3 -60 150 C-69.9 150 -79.8 150 -90 150 C-90 145.05 -90 140.1 -90 135 C-94.95 135 -99.9 135 -105 135 C-105 130.05 -105 125.1 -105 120 C-114.9 120 -124.8 120 -135 120 C-135 115.05 -135 110.1 -135 105 C-139.95 105 -144.9 105 -150 105 C-150 100.05 -150 95.1 -150 90 C-154.95 90 -159.9 90 -165 90 C-165 85.05 -165 80.1 -165 75 C-169.95 75 -174.9 75 -180 75 C-180 60.15 -180 45.3 -180 30 C-175.05 30 -170.1 30 -165 30 C-165 25.05 -165 20.1 -165 15 C-155.1 15 -145.2 15 -135 15 C-135 24.9 -135 34.8 -135 45 C-125.1 45 -115.2 45 -105 45 C-105 40.05 -105 35.1 -105 30 C-100.05 30 -95.1 30 -90 30 C-90 25.05 -90 20.1 -90 15 C-70.2 15 -50.4 15 -30 15 C-30 19.95 -30 24.9 -30 30 C-25.05 30 -20.1 30 -15 30 C-15 25.05 -15 20.1 -15 15 C-10.05 15 -5.1 15 0 15 C0 10.05 0 5.1 0 0 Z " fill="#00F4C7" transform="translate(529,221)"/>
<path d="M0 0 C9.9 0 19.8 0 30 0 C30 4.95 30 9.9 30 15 C25.05 15 20.1 15 15 15 C15 49.65 15 84.3 15 120 C19.95 120 24.9 120 30 120 C30 115.05 30 110.1 30 105 C34.95 105 39.9 105 45 105 C45 109.95 45 114.9 45 120 C84.6 120 124.2 120 165 120 C165 124.95 165 129.9 165 135 C169.95 135 174.9 135 180 135 C180 159.75 180 184.5 180 210 C165.15 210 150.3 210 135 210 C135 219.9 135 229.8 135 240 C130.05 240 125.1 240 120 240 C120 220.2 120 200.4 120 180 C110.1 180 100.2 180 90 180 C90 199.8 90 219.6 90 240 C85.05 240 80.1 240 75 240 C75 230.1 75 220.2 75 210 C60.15 210 45.3 210 30 210 C30 190.2 30 170.4 30 150 C25.05 150 20.1 150 15 150 C15 145.05 15 140.1 15 135 C10.05 135 5.1 135 0 135 C0 90.45 0 45.9 0 0 Z " fill="#42DDF3" transform="translate(49,176)"/>
<path d="M0 0 C24.75 0 49.5 0 75 0 C75 4.95 75 9.9 75 15 C79.95 15 84.9 15 90 15 C90 19.95 90 24.9 90 30 C94.95 30 99.9 30 105 30 C105 44.85 105 59.7 105 75 C100.05 75 95.1 75 90 75 C90 84.9 90 94.8 90 105 C85.05 105 80.1 105 75 105 C75 109.95 75 114.9 75 120 C70.05 120 65.1 120 60 120 C60 124.95 60 129.9 60 135 C45.15 135 30.3 135 15 135 C15 130.05 15 125.1 15 120 C10.05 120 5.1 120 0 120 C0 115.05 0 110.1 0 105 C-4.95 105 -9.9 105 -15 105 C-15 95.1 -15 85.2 -15 75 C-19.95 75 -24.9 75 -30 75 C-30 60.15 -30 45.3 -30 30 C-25.05 30 -20.1 30 -15 30 C-15 25.05 -15 20.1 -15 15 C-10.05 15 -5.1 15 0 15 C0 10.05 0 5.1 0 0 Z " fill="#00F4C7" transform="translate(124,26)"/>
<path d="M0 0 C4.95 0 9.9 0 15 0 C15 14.85 15 29.7 15 45 C24.9 45 34.8 45 45 45 C45 49.95 45 54.9 45 60 C49.95 60 54.9 60 60 60 C60 64.95 60 69.9 60 75 C64.95 75 69.9 75 75 75 C75 70.05 75 65.1 75 60 C79.95 60 84.9 60 90 60 C90 69.9 90 79.8 90 90 C80.1 90 70.2 90 60 90 C60 114.75 60 139.5 60 165 C55.05 165 50.1 165 45 165 C45 169.95 45 174.9 45 180 C20.25 180 -4.5 180 -30 180 C-30 175.05 -30 170.1 -30 165 C-34.95 165 -39.9 165 -45 165 C-45 169.95 -45 174.9 -45 180 C-69.75 180 -94.5 180 -120 180 C-120 165.15 -120 150.3 -120 135 C-129.9 135 -139.8 135 -150 135 C-150 130.05 -150 125.1 -150 120 C-130.2 120 -110.4 120 -90 120 C-90 124.95 -90 129.9 -90 135 C-94.95 135 -99.9 135 -105 135 C-105 139.95 -105 144.9 -105 150 C-95.1 150 -85.2 150 -75 150 C-75 154.95 -75 159.9 -75 165 C-70.05 165 -65.1 165 -60 165 C-60 160.05 -60 155.1 -60 150 C-55.05 150 -50.1 150 -45 150 C-45 145.05 -45 140.1 -45 135 C-35.1 135 -25.2 135 -15 135 C-15 139.95 -15 144.9 -15 150 C-5.1 150 4.8 150 15 150 C15 154.95 15 159.9 15 165 C19.95 165 24.9 165 30 165 C30 160.05 30 155.1 30 150 C34.95 150 39.9 150 45 150 C45 125.25 45 100.5 45 75 C40.05 75 35.1 75 30 75 C30 70.05 30 65.1 30 60 C25.05 60 20.1 60 15 60 C15 64.95 15 69.9 15 75 C10.05 75 5.1 75 0 75 C0 50.25 0 25.5 0 0 Z " fill="#42DDF3" transform="translate(589,236)"/>
<path d="M0 0 C24.75 0 49.5 0 75 0 C75 4.95 75 9.9 75 15 C79.95 15 84.9 15 90 15 C90 19.95 90 24.9 90 30 C94.95 30 99.9 30 105 30 C105 44.85 105 59.7 105 75 C100.05 75 95.1 75 90 75 C90 70.05 90 65.1 90 60 C85.05 60 80.1 60 75 60 C75 55.05 75 50.1 75 45 C65.1 45 55.2 45 45 45 C45 49.95 45 54.9 45 60 C40.05 60 35.1 60 30 60 C30 55.05 30 50.1 30 45 C20.1 45 10.2 45 0 45 C0 49.95 0 54.9 0 60 C-4.95 60 -9.9 60 -15 60 C-15 64.95 -15 69.9 -15 75 C-19.95 75 -24.9 75 -30 75 C-30 60.15 -30 45.3 -30 30 C-25.05 30 -20.1 30 -15 30 C-15 25.05 -15 20.1 -15 15 C-10.05 15 -5.1 15 0 15 C0 10.05 0 5.1 0 0 Z " fill="#42DDF3" transform="translate(124,26)"/>
<path d="M0 0 C14.85 0 29.7 0 45 0 C45 9.9 45 19.8 45 30 C49.95 30 54.9 30 60 30 C60 34.95 60 39.9 60 45 C55.05 45 50.1 45 45 45 C45 59.85 45 74.7 45 90 C40.05 90 35.1 90 30 90 C30 75.15 30 60.3 30 45 C25.05 45 20.1 45 15 45 C15 49.95 15 54.9 15 60 C10.05 60 5.1 60 0 60 C0 40.2 0 20.4 0 0 Z " fill="#42DDF3" transform="translate(274,101)"/>
<path d="M0 0 C14.85 0 29.7 0 45 0 C45 4.95 45 9.9 45 15 C40.05 15 35.1 15 30 15 C30 19.95 30 24.9 30 30 C39.9 30 49.8 30 60 30 C60 34.95 60 39.9 60 45 C55.05 45 50.1 45 45 45 C45 49.95 45 54.9 45 60 C40.05 60 35.1 60 30 60 C30 64.95 30 69.9 30 75 C25.05 75 20.1 75 15 75 C15 70.05 15 65.1 15 60 C10.05 60 5.1 60 0 60 C0 55.05 0 50.1 0 45 C-4.95 45 -9.9 45 -15 45 C-15 40.05 -15 35.1 -15 30 C-5.1 30 4.8 30 15 30 C15 25.05 15 20.1 15 15 C10.05 15 5.1 15 0 15 C0 10.05 0 5.1 0 0 Z " fill="#00F4C7" transform="translate(139,206)"/>
<path d="M0 0 C9.9 0 19.8 0 30 0 C30 4.95 30 9.9 30 15 C25.05 15 20.1 15 15 15 C15 49.65 15 84.3 15 120 C19.95 120 24.9 120 30 120 C30 115.05 30 110.1 30 105 C34.95 105 39.9 105 45 105 C45 114.9 45 124.8 45 135 C30.15 135 15.3 135 0 135 C0 90.45 0 45.9 0 0 Z " fill="#42DDF3" transform="translate(49,176)"/>
<path d="M0 0 C19.8 0 39.6 0 60 0 C60 4.95 60 9.9 60 15 C45.15 15 30.3 15 15 15 C15 34.8 15 54.6 15 75 C10.05 75 5.1 75 0 75 C0 50.25 0 25.5 0 0 Z " fill="#42DDF3" transform="translate(214,221)"/>
<path d="M0 0 C14.85 0 29.7 0 45 0 C45 9.9 45 19.8 45 30 C30.15 30 15.3 30 0 30 C0 20.1 0 10.2 0 0 Z " fill="#00F4C7" transform="translate(274,101)"/>
<path d="M0 0 C4.95 0 9.9 0 15 0 C15 24.75 15 49.5 15 75 C10.05 75 5.1 75 0 75 C0 50.25 0 25.5 0 0 Z " fill="#42DDF3" transform="translate(94,206)"/>
<path d="M0 0 C19.8 0 39.6 0 60 0 C60 4.95 60 9.9 60 15 C40.2 15 20.4 15 0 15 C0 10.05 0 5.1 0 0 Z " fill="#42DDF3" transform="translate(439,236)"/>
<path d="M0 0 C19.8 0 39.6 0 60 0 C60 4.95 60 9.9 60 15 C40.2 15 20.4 15 0 15 C0 10.05 0 5.1 0 0 Z " fill="#42DDF3" transform="translate(529,221)"/>
<path d="M0 0 C14.85 0 29.7 0 45 0 C45 4.95 45 9.9 45 15 C40.05 15 35.1 15 30 15 C30 19.95 30 24.9 30 30 C25.05 30 20.1 30 15 30 C15 25.05 15 20.1 15 15 C10.05 15 5.1 15 0 15 C0 10.05 0 5.1 0 0 Z " fill="#083344" transform="translate(139,206)"/>
<path d="M0 0 C4.95 0 9.9 0 15 0 C15 4.95 15 9.9 15 15 C19.95 15 24.9 15 30 15 C30 19.95 30 24.9 30 30 C15.15 30 0.3 30 -15 30 C-15 25.05 -15 20.1 -15 15 C-10.05 15 -5.1 15 0 15 C0 10.05 0 5.1 0 0 Z " fill="#00F4C7" transform="translate(154,176)"/>
<path d="M0 0 C4.95 0 9.9 0 15 0 C15 14.85 15 29.7 15 45 C10.05 45 5.1 45 0 45 C0 40.05 0 35.1 0 30 C-4.95 30 -9.9 30 -15 30 C-15 25.05 -15 20.1 -15 15 C-10.05 15 -5.1 15 0 15 C0 10.05 0 5.1 0 0 Z " fill="#42DDF3" transform="translate(214,56)"/>
<path d="M0 0 C4.95 0 9.9 0 15 0 C15 4.95 15 9.9 15 15 C19.95 15 24.9 15 30 15 C30 19.95 30 24.9 30 30 C25.05 30 20.1 30 15 30 C15 34.95 15 39.9 15 45 C10.05 45 5.1 45 0 45 C0 30.15 0 15.3 0 0 Z " fill="#42DDF3" transform="translate(94,56)"/>
<path d="M0 0 C14.85 0 29.7 0 45 0 C45 4.95 45 9.9 45 15 C30.15 15 15.3 15 0 15 C0 10.05 0 5.1 0 0 Z " fill="#42DDF3" transform="translate(544,311)"/>
<path d="M0 0 C4.95 0 9.9 0 15 0 C15 9.9 15 19.8 15 30 C5.1 30 -4.8 30 -15 30 C-15 25.05 -15 20.1 -15 15 C-10.05 15 -5.1 15 0 15 C0 10.05 0 5.1 0 0 Z " fill="#00F4C7" transform="translate(79,281)"/>
<path d="M0 0 C4.95 0 9.9 0 15 0 C15 9.9 15 19.8 15 30 C5.1 30 -4.8 30 -15 30 C-15 25.05 -15 20.1 -15 15 C-10.05 15 -5.1 15 0 15 C0 10.05 0 5.1 0 0 Z " fill="#083344" transform="translate(454,281)"/>
<path d="M0 0 C4.95 0 9.9 0 15 0 C15 14.85 15 29.7 15 45 C10.05 45 5.1 45 0 45 C0 30.15 0 15.3 0 0 Z " fill="#42DDF3" transform="translate(349,251)"/>
<path d="M0 0 C9.9 0 19.8 0 30 0 C30 9.9 30 19.8 30 30 C25.05 30 20.1 30 15 30 C15 25.05 15 20.1 15 15 C10.05 15 5.1 15 0 15 C0 10.05 0 5.1 0 0 Z " fill="#42DDF3" transform="translate(364,236)"/>
<path d="M0 0 C14.85 0 29.7 0 45 0 C45 4.95 45 9.9 45 15 C30.15 15 15.3 15 0 15 C0 10.05 0 5.1 0 0 Z " fill="#42DDF3" transform="translate(139,146)"/>
<path d="M0 0 C9.9 0 19.8 0 30 0 C30 4.95 30 9.9 30 15 C25.05 15 20.1 15 15 15 C15 19.95 15 24.9 15 30 C10.05 30 5.1 30 0 30 C0 20.1 0 10.2 0 0 Z " fill="#083344" transform="translate(169,71)"/>
<path d="M0 0 C9.9 0 19.8 0 30 0 C30 9.9 30 19.8 30 30 C25.05 30 20.1 30 15 30 C15 25.05 15 20.1 15 15 C10.05 15 5.1 15 0 15 C0 10.05 0 5.1 0 0 Z " fill="#083344" transform="translate(124,71)"/>
<path d="M0 0 C14.85 0 29.7 0 45 0 C45 4.95 45 9.9 45 15 C30.15 15 15.3 15 0 15 C0 10.05 0 5.1 0 0 Z " fill="#00F4C7" transform="translate(109,56)"/>
<path d="M0 0 C9.9 0 19.8 0 30 0 C30 4.95 30 9.9 30 15 C20.1 15 10.2 15 0 15 C0 10.05 0 5.1 0 0 Z " fill="#F0F9FF" transform="translate(574,386)"/>
<path d="M0 0 C9.9 0 19.8 0 30 0 C30 4.95 30 9.9 30 15 C20.1 15 10.2 15 0 15 C0 10.05 0 5.1 0 0 Z " fill="#F0F9FF" transform="translate(484,386)"/>
<path d="M0 0 C9.9 0 19.8 0 30 0 C30 4.95 30 9.9 30 15 C20.1 15 10.2 15 0 15 C0 10.05 0 5.1 0 0 Z " fill="#42DDF3" transform="translate(394,326)"/>
<path d="M0 0 C9.9 0 19.8 0 30 0 C30 4.95 30 9.9 30 15 C20.1 15 10.2 15 0 15 C0 10.05 0 5.1 0 0 Z " fill="#42DDF3" transform="translate(394,266)"/>
<path d="M0 0 C9.9 0 19.8 0 30 0 C30 4.95 30 9.9 30 15 C20.1 15 10.2 15 0 15 C0 10.05 0 5.1 0 0 Z " fill="#42DDF3" transform="translate(199,146)"/>
<path d="M0 0 C9.9 0 19.8 0 30 0 C30 4.95 30 9.9 30 15 C20.1 15 10.2 15 0 15 C0 10.05 0 5.1 0 0 Z " fill="#42DDF3" transform="translate(94,146)"/>
<path d="M0 0 C9.9 0 19.8 0 30 0 C30 4.95 30 9.9 30 15 C20.1 15 10.2 15 0 15 C0 10.05 0 5.1 0 0 Z " fill="#42DDF3" transform="translate(139,116)"/>
<path d="M0 0 C4.95 0 9.9 0 15 0 C15 9.9 15 19.8 15 30 C10.05 30 5.1 30 0 30 C0 20.1 0 10.2 0 0 Z " fill="#42DDF3" transform="translate(199,101)"/>
<path d="M0 0 C4.95 0 9.9 0 15 0 C15 9.9 15 19.8 15 30 C10.05 30 5.1 30 0 30 C0 20.1 0 10.2 0 0 Z " fill="#42DDF3" transform="translate(109,101)"/>
<path d="M0 0 C4.95 0 9.9 0 15 0 C15 4.95 15 9.9 15 15 C10.05 15 5.1 15 0 15 C0 10.05 0 5.1 0 0 Z " fill="#42DDF3" transform="translate(244,401)"/>
<path d="M0 0 C4.95 0 9.9 0 15 0 C15 4.95 15 9.9 15 15 C10.05 15 5.1 15 0 15 C0 10.05 0 5.1 0 0 Z " fill="#42DDF3" transform="translate(49,401)"/>
<path d="M0 0 C4.95 0 9.9 0 15 0 C15 4.95 15 9.9 15 15 C10.05 15 5.1 15 0 15 C0 10.05 0 5.1 0 0 Z " fill="#42DDF3" transform="translate(229,386)"/>
<path d="M0 0 C4.95 0 9.9 0 15 0 C15 4.95 15 9.9 15 15 C10.05 15 5.1 15 0 15 C0 10.05 0 5.1 0 0 Z " fill="#42DDF3" transform="translate(64,386)"/>
<path d="M0 0 C4.95 0 9.9 0 15 0 C15 4.95 15 9.9 15 15 C10.05 15 5.1 15 0 15 C0 10.05 0 5.1 0 0 Z " fill="#42DDF3" transform="translate(499,341)"/>
<path d="M0 0 C4.95 0 9.9 0 15 0 C15 4.95 15 9.9 15 15 C10.05 15 5.1 15 0 15 C0 10.05 0 5.1 0 0 Z " fill="#42DDF3" transform="translate(424,341)"/>
<path d="M0 0 C4.95 0 9.9 0 15 0 C15 4.95 15 9.9 15 15 C10.05 15 5.1 15 0 15 C0 10.05 0 5.1 0 0 Z " fill="#42DDF3" transform="translate(379,311)"/>
<path d="M0 0 C4.95 0 9.9 0 15 0 C15 4.95 15 9.9 15 15 C10.05 15 5.1 15 0 15 C0 10.05 0 5.1 0 0 Z " fill="#42DDF3" transform="translate(529,296)"/>
<path d="M0 0 C4.95 0 9.9 0 15 0 C15 4.95 15 9.9 15 15 C10.05 15 5.1 15 0 15 C0 10.05 0 5.1 0 0 Z " fill="#42DDF3" transform="translate(364,296)"/>
<path d="M0 0 C4.95 0 9.9 0 15 0 C15 4.95 15 9.9 15 15 C10.05 15 5.1 15 0 15 C0 10.05 0 5.1 0 0 Z " fill="#F0F9FF" transform="translate(439,281)"/>
<path d="M0 0 C4.95 0 9.9 0 15 0 C15 4.95 15 9.9 15 15 C10.05 15 5.1 15 0 15 C0 10.05 0 5.1 0 0 Z " fill="#42DDF3" transform="translate(79,281)"/>
<path d="M0 0 C4.95 0 9.9 0 15 0 C15 4.95 15 9.9 15 15 C10.05 15 5.1 15 0 15 C0 10.05 0 5.1 0 0 Z " fill="#42DDF3" transform="translate(499,251)"/>
<path d="M0 0 C4.95 0 9.9 0 15 0 C15 4.95 15 9.9 15 15 C10.05 15 5.1 15 0 15 C0 10.05 0 5.1 0 0 Z " fill="#42DDF3" transform="translate(424,251)"/>
<path d="M0 0 C4.95 0 9.9 0 15 0 C15 4.95 15 9.9 15 15 C10.05 15 5.1 15 0 15 C0 10.05 0 5.1 0 0 Z " fill="#42DDF3" transform="translate(514,236)"/>
<path d="M0 0 C4.95 0 9.9 0 15 0 C15 4.95 15 9.9 15 15 C10.05 15 5.1 15 0 15 C0 10.05 0 5.1 0 0 Z " fill="#E0F2FE" transform="translate(154,236)"/>
<path d="M0 0 C4.95 0 9.9 0 15 0 C15 4.95 15 9.9 15 15 C10.05 15 5.1 15 0 15 C0 10.05 0 5.1 0 0 Z " fill="#42DDF3" transform="translate(274,206)"/>
<path d="M0 0 C4.95 0 9.9 0 15 0 C15 4.95 15 9.9 15 15 C10.05 15 5.1 15 0 15 C0 10.05 0 5.1 0 0 Z " fill="#00F4C7" transform="translate(184,206)"/>
<path d="M0 0 C4.95 0 9.9 0 15 0 C15 4.95 15 9.9 15 15 C10.05 15 5.1 15 0 15 C0 10.05 0 5.1 0 0 Z " fill="#00F4C7" transform="translate(124,206)"/>
<path d="M0 0 C4.95 0 9.9 0 15 0 C15 4.95 15 9.9 15 15 C10.05 15 5.1 15 0 15 C0 10.05 0 5.1 0 0 Z " fill="#42DDF3" transform="translate(289,191)"/>
<path d="M0 0 C4.95 0 9.9 0 15 0 C15 4.95 15 9.9 15 15 C10.05 15 5.1 15 0 15 C0 10.05 0 5.1 0 0 Z " fill="#42DDF3" transform="translate(244,176)"/>
<path d="M0 0 C4.95 0 9.9 0 15 0 C15 4.95 15 9.9 15 15 C10.05 15 5.1 15 0 15 C0 10.05 0 5.1 0 0 Z " fill="#42DDF3" transform="translate(259,161)"/>
<path d="M0 0 C4.95 0 9.9 0 15 0 C15 4.95 15 9.9 15 15 C10.05 15 5.1 15 0 15 C0 10.05 0 5.1 0 0 Z " fill="#42DDF3" transform="translate(229,161)"/>
<path d="M0 0 C4.95 0 9.9 0 15 0 C15 4.95 15 9.9 15 15 C10.05 15 5.1 15 0 15 C0 10.05 0 5.1 0 0 Z " fill="#42DDF3" transform="translate(79,161)"/>
<path d="M0 0 C4.95 0 9.9 0 15 0 C15 4.95 15 9.9 15 15 C10.05 15 5.1 15 0 15 C0 10.05 0 5.1 0 0 Z " fill="#42DDF3" transform="translate(184,131)"/>
<path d="M0 0 C4.95 0 9.9 0 15 0 C15 4.95 15 9.9 15 15 C10.05 15 5.1 15 0 15 C0 10.05 0 5.1 0 0 Z " fill="#42DDF3" transform="translate(124,131)"/>
<path d="M0 0 C4.95 0 9.9 0 15 0 C15 4.95 15 9.9 15 15 C10.05 15 5.1 15 0 15 C0 10.05 0 5.1 0 0 Z " fill="#E0F2FE" transform="translate(199,71)"/>
<path d="M0 0 C4.95 0 9.9 0 15 0 C15 4.95 15 9.9 15 15 C10.05 15 5.1 15 0 15 C0 10.05 0 5.1 0 0 Z " fill="#E0F2FE" transform="translate(154,71)"/>
<path d="M0 0 C4.95 0 9.9 0 15 0 C15 4.95 15 9.9 15 15 C10.05 15 5.1 15 0 15 C0 10.05 0 5.1 0 0 Z " fill="#E0F2FE" transform="translate(109,71)"/>
<path d="M0 0 C4.95 0 9.9 0 15 0 C15 4.95 15 9.9 15 15 C10.05 15 5.1 15 0 15 C0 10.05 0 5.1 0 0 Z " fill="#00F4C7" transform="translate(199,56)"/>
<path d="M0 0 C4.95 0 9.9 0 15 0 C15 4.95 15 9.9 15 15 C10.05 15 5.1 15 0 15 C0 10.05 0 5.1 0 0 Z " fill="#00F4C7" transform="translate(169,56)"/>
</svg>
