<svg version="1.1" id="Layer_1" xmlns="http://www.w3.org/2000/svg" xmlns:xlink="http://www.w3.org/1999/xlink" x="0px" y="0px"
	 width="100%" viewBox="0 0 225 225" enable-background="new 0 0 225 225" xml:space="preserve">
<path fill="#7F5BC0" opacity="1.000000" stroke="none" 
	d="
M226.000000,167.000000 
	C226.000000,186.636230 226.000000,206.272446 226.000000,226.000000 
	C151.645798,226.000000 77.291557,226.000000 2.649037,225.774445 
	C2.412672,225.363510 2.464585,225.178101 2.613893,224.596741 
	C2.807716,203.466888 2.904144,182.732986 3.352036,161.924652 
	C8.910395,161.749207 14.117846,161.669601 19.323860,161.534607 
	C20.964266,161.492081 22.600346,161.203491 24.239220,161.195557 
	C30.146738,161.166977 36.054722,161.240250 41.962303,161.216751 
	C46.918308,161.197052 51.873985,161.095993 56.885361,161.317123 
	C56.986099,161.792313 57.031284,161.981323 57.111546,162.524200 
	C57.102077,164.059891 57.057533,165.241699 57.349651,166.689346 
	C59.425735,167.298584 61.161877,167.918213 62.905121,167.938889 
	C71.824875,168.044662 80.747086,168.052368 89.666870,167.953094 
	C91.419754,167.933578 93.165726,167.292389 94.925583,166.557648 
	C95.200302,164.750610 95.464317,163.323837 96.214241,161.916061 
	C109.397743,161.498932 122.286514,163.802063 134.468781,159.595428 
	C134.146088,162.240601 134.053772,164.573441 134.311798,167.132858 
	C146.735229,167.521790 158.808334,167.684128 171.158661,167.955994 
	C173.062210,168.065536 174.688522,168.065536 174.917908,168.065536 
	C177.222733,165.439346 178.636154,162.376144 180.169037,162.315170 
	C191.095749,161.880447 202.047302,162.009003 212.989471,162.113785 
	C214.155258,162.124939 215.996185,162.854080 216.358765,163.731583 
	C218.400772,168.673706 222.156815,167.812500 226.000000,167.000000 
z"/>
<path fill="#8761CD" opacity="1.000000" stroke="none" 
	d="
M1.000000,48.000000 
	C1.000000,40.979053 1.000000,33.958103 1.261577,26.154703 
	C1.721647,21.911827 1.920138,18.451406 2.303374,15.295502 
	C4.449239,22.169981 8.756019,28.129887 7.204169,35.647583 
	C6.931575,36.968128 8.704896,39.913288 9.777030,40.039577 
	C11.581099,40.252087 13.580497,38.806358 15.497730,38.058174 
	C14.698191,36.312832 13.974515,34.527164 13.074996,32.834965 
	C12.361440,31.492601 11.432501,30.264727 10.599195,28.986019 
	C12.004006,28.332184 13.352056,27.406160 14.828988,27.098158 
	C16.427273,26.764849 18.145819,27.001143 19.811913,27.001104 
	C73.629173,26.999857 127.447052,27.141529 181.263306,26.908405 
	C196.178009,26.843800 211.087906,25.666695 226.000000,25.000000 
	C226.000000,56.020893 226.000000,87.041786 225.607147,118.491928 
	C221.812729,118.667374 221.960831,116.120422 222.026657,113.788086 
	C222.273178,105.054451 222.754272,96.323761 222.790924,87.590485 
	C222.800018,85.420540 222.115402,82.405220 220.616455,81.254120 
	C217.850494,79.130020 210.271637,82.343254 209.101196,85.802162 
	C207.838486,89.533775 205.408524,91.050873 201.617828,91.005867 
	C195.805664,90.936844 189.990753,91.054916 184.179993,90.940933 
	C182.563980,90.909233 179.920975,90.819267 179.513672,89.939293 
	C176.466537,83.355972 172.239441,85.728172 167.894043,87.595131 
	C170.127243,83.728043 170.977112,80.103004 169.229736,75.925934 
	C164.773865,75.925934 160.453125,75.724426 156.160995,75.988251 
	C152.581970,76.208237 151.482361,74.756294 151.688766,71.389603 
	C151.896179,68.006058 151.734390,64.599884 151.734390,60.818607 
	C148.518555,60.818607 146.211731,60.826477 143.904984,60.817379 
	C122.669571,60.733616 101.434166,60.646927 80.716049,60.439980 
	C83.548767,60.200787 85.864029,59.983757 88.179626,59.980240 
	C107.255043,59.951263 126.330521,59.965733 145.405975,59.951347 
	C146.586334,59.950455 147.766617,59.816929 148.946930,59.745113 
	C148.927078,59.547539 148.907227,59.349960 148.887375,59.152382 
	C148.236633,59.086254 147.585892,59.020126 146.782318,58.678753 
	C146.210510,58.164711 145.790756,57.715752 145.372650,57.717304 
	C125.551979,57.790741 105.731262,57.881844 85.911240,58.051231 
	C84.299324,58.065010 82.692230,58.644432 80.743546,58.974457 
	C79.278778,59.533253 78.153374,60.078609 76.750076,60.966919 
	C76.344368,64.609673 76.135056,67.908905 76.111931,71.209442 
	C76.089333,74.433792 74.863716,76.116501 71.375320,75.962822 
	C67.735825,75.802467 64.082413,75.960197 60.435074,75.975105 
	C57.890018,75.985512 56.825554,76.649467 57.940193,79.567108 
	C59.045425,82.460106 59.409779,85.636139 60.173698,88.913139 
	C60.366142,89.433624 60.516445,89.711441 60.800591,90.186104 
	C60.901947,90.400528 61.060661,90.847534 61.043808,91.130219 
	C61.022823,91.601608 61.018688,91.790314 60.987137,92.228653 
	C60.228672,92.677177 59.037437,93.259560 58.835640,93.017403 
	C55.829243,89.409737 51.756424,89.989388 47.803772,89.994377 
	C36.495579,90.008636 25.186436,89.916229 13.879659,90.043266 
	C10.149227,90.085167 7.745519,89.311066 7.898795,84.895714 
	C8.007751,81.757065 6.381630,79.884438 2.997228,79.542084 
	C2.994794,70.615189 3.112929,62.154701 2.902071,53.702419 
	C2.854287,51.786991 1.664254,49.900051 1.000000,48.000000 
z"/>
<path fill="#8B63D2" opacity="1.000000" stroke="none" 
	d="
M226.000000,24.531467 
	C211.087906,25.666695 196.178009,26.843800 181.263306,26.908405 
	C127.447052,27.141529 73.629173,26.999857 19.811913,27.001104 
	C18.145819,27.001143 16.427273,26.764849 14.828988,27.098158 
	C13.352056,27.406160 12.004006,28.332184 10.599195,28.986019 
	C11.432501,30.264727 12.361440,31.492601 13.074996,32.834965 
	C13.974515,34.527164 14.698191,36.312832 15.497730,38.058174 
	C13.580497,38.806358 11.581099,40.252087 9.777030,40.039577 
	C8.704896,39.913288 6.931575,36.968128 7.204169,35.647583 
	C8.756019,28.129887 4.449239,22.169981 2.262349,14.871973 
	C1.691053,11.762618 1.345526,9.381309 1.000000,7.000000 
	C1.000000,6.555555 1.000000,6.111111 1.234576,5.167381 
	C1.575550,4.113857 1.681948,3.559618 2.014601,2.769708 
	C3.160570,2.022692 4.080285,1.511346 5.000000,1.000000 
	C5.750000,1.000000 6.500000,1.000000 7.941877,1.271546 
	C16.089170,1.362062 23.544584,1.181031 31.000000,1.000000 
	C39.354233,1.000000 47.708466,1.000000 56.847042,1.273098 
	C63.714005,1.697839 69.797943,1.999201 75.878754,1.945562 
	C79.588326,1.912839 83.293083,1.333709 87.000000,1.000000 
	C95.354233,1.000000 103.708466,1.000000 112.847046,1.273097 
	C119.714005,1.697839 125.797943,1.999202 131.878754,1.945563 
	C135.588333,1.912840 139.293076,1.333710 143.000000,1.000000 
	C151.354233,1.000000 159.708466,1.000000 168.847046,1.273101 
	C175.714005,1.697844 181.797943,1.999204 187.878754,1.945562 
	C191.588333,1.912838 195.293076,1.333709 199.000000,1.000000 
	C204.688034,1.000000 210.376083,1.000000 216.661469,1.229187 
	C217.839218,1.305584 218.419601,1.152793 219.000000,1.000001 
	C221.333328,1.333333 223.666672,1.666667 225.795120,2.549067 
	C225.726822,3.398754 225.863419,3.699375 226.000000,3.999997 
	C226.000000,10.687645 226.000000,17.375290 226.000000,24.531467 
z"/>
<path fill="#835EC7" opacity="1.000000" stroke="none" 
	d="
M167.904800,87.988647 
	C172.239441,85.728172 176.466537,83.355972 179.513672,89.939293 
	C179.920975,90.819267 182.563980,90.909233 184.179993,90.940933 
	C189.990753,91.054916 195.805664,90.936844 201.617828,91.005867 
	C205.408524,91.050873 207.838486,89.533775 209.101196,85.802162 
	C210.271637,82.343254 217.850494,79.130020 220.616455,81.254120 
	C222.115402,82.405220 222.800018,85.420540 222.790924,87.590485 
	C222.754272,96.323761 222.273178,105.054451 222.026657,113.788086 
	C221.960831,116.120422 221.812729,118.667374 225.607147,118.960587 
	C226.000000,134.687561 226.000000,150.375122 226.000000,166.531342 
	C222.156815,167.812500 218.400772,168.673706 216.358765,163.731583 
	C215.996185,162.854080 214.155258,162.124939 212.989471,162.113785 
	C202.047302,162.009003 191.095749,161.880447 180.169037,162.315170 
	C178.636154,162.376144 177.222733,165.439346 174.917908,168.065536 
	C174.688522,168.065536 173.062210,168.065536 171.146133,167.702118 
	C170.856888,167.168518 170.857407,166.998352 170.809998,166.421799 
	C170.223862,163.691498 170.192139,161.075180 169.051270,159.099258 
	C165.805344,153.477493 161.985413,148.295441 162.864807,141.128098 
	C163.426270,136.551926 162.966995,131.850616 162.966797,127.205421 
	C162.966309,115.614227 162.966629,104.023041 162.966629,92.431847 
	C163.480560,92.673447 163.994476,92.915047 164.508408,93.156647 
	C165.640533,91.433975 166.772659,89.711311 167.904800,87.988647 
M174.497299,165.475510 
	C174.497299,165.475510 174.509918,165.513824 174.497299,165.475510 
z"/>
<path fill="#8167C0" opacity="1.000000" stroke="none" 
	d="
M1.000000,48.444164 
	C1.664254,49.900051 2.854287,51.786991 2.902071,53.702419 
	C3.112929,62.154701 2.994794,70.615189 2.996368,80.009438 
	C2.998142,107.963806 2.999357,134.981445 3.000572,161.999084 
	C2.904144,182.732986 2.807716,203.466888 2.480152,224.144257 
	C2.172140,212.965042 2.141121,201.841690 1.974416,190.720367 
	C1.945767,188.809143 1.339463,186.906570 1.000000,185.000000 
	C1.000000,177.645752 1.000000,170.291504 1.263977,162.167648 
	C1.351969,158.265366 1.175984,155.132675 1.000000,152.000000 
	C1.000000,136.645767 1.000000,121.291542 1.256632,105.141647 
	C1.614586,88.819077 1.724973,73.292206 1.782260,57.765137 
	C1.784427,57.177731 1.272409,56.588421 1.000000,56.000000 
	C1.000000,53.629444 1.000000,51.258884 1.000000,48.444164 
z"/>
<path fill="#533B8A" opacity="1.000000" stroke="none" 
	d="
M1.000000,56.468658 
	C1.272409,56.588421 1.784427,57.177731 1.782260,57.765137 
	C1.724973,73.292206 1.614586,88.819077 1.256632,104.672989 
	C1.000000,88.979103 1.000000,72.958214 1.000000,56.468658 
z"/>
<path fill="#4E3882" opacity="1.000000" stroke="none" 
	d="
M1.000000,185.468658 
	C1.339463,186.906570 1.945767,188.809143 1.974416,190.720367 
	C2.141121,201.841690 2.172140,212.965042 2.382757,224.540192 
	C2.464585,225.178101 2.412672,225.363510 2.180379,225.774445 
	C1.666667,225.178955 1.046965,224.359329 1.042914,223.536667 
	C0.981203,211.003784 1.000000,198.470505 1.000000,185.468658 
z"/>
<path fill="#553D89" opacity="1.000000" stroke="none" 
	d="
M142.531342,1.000000 
	C139.293076,1.333710 135.588333,1.912840 131.878754,1.945563 
	C125.797943,1.999202 119.714005,1.697839 113.315689,1.273097 
	C122.687561,1.000000 132.375122,1.000000 142.531342,1.000000 
z"/>
<path fill="#553D89" opacity="1.000000" stroke="none" 
	d="
M86.531342,1.000000 
	C83.293083,1.333709 79.588326,1.912839 75.878754,1.945562 
	C69.797943,1.999201 63.714005,1.697839 57.315693,1.273098 
	C66.687561,1.000000 76.375122,1.000000 86.531342,1.000000 
z"/>
<path fill="#553D89" opacity="1.000000" stroke="none" 
	d="
M198.531342,1.000000 
	C195.293076,1.333709 191.588333,1.912838 187.878754,1.945562 
	C181.797943,1.999204 175.714005,1.697844 169.315689,1.273101 
	C178.687561,1.000000 188.375122,1.000000 198.531342,1.000000 
z"/>
<path fill="#553D89" opacity="1.000000" stroke="none" 
	d="
M30.531378,1.000000 
	C23.544584,1.181031 16.089170,1.362062 8.316877,1.271546 
	C15.354252,1.000000 22.708504,1.000000 30.531378,1.000000 
z"/>
<path fill="#533B8A" opacity="1.000000" stroke="none" 
	d="
M1.000000,7.468272 
	C1.345526,9.381309 1.691053,11.762618 2.077605,14.567455 
	C1.920138,18.451406 1.721647,21.911827 1.261577,25.686125 
	C1.000000,19.978848 1.000000,13.957696 1.000000,7.468272 
z"/>
<path fill="#4E3882" opacity="1.000000" stroke="none" 
	d="
M1.000000,152.454102 
	C1.175984,155.132675 1.351969,158.265366 1.263977,161.699020 
	C1.000000,158.969406 1.000000,155.938812 1.000000,152.454102 
z"/>
<path fill="#553D89" opacity="1.000000" stroke="none" 
	d="
M4.500002,1.000000 
	C4.080285,1.511346 3.160570,2.022692 1.817682,2.768075 
	C1.394510,3.002112 1.000000,3.000000 1.000000,3.000000 
	C0.488351,0.065855 2.693806,1.207371 4.500002,1.000000 
z"/>
<path fill="#533B8A" opacity="1.000000" stroke="none" 
	d="
M1.000000,3.333333 
	C1.000000,3.000000 1.394510,3.002112 1.591428,3.003746 
	C1.681948,3.559618 1.575550,4.113857 1.234576,4.834048 
	C1.000000,4.555555 1.000000,4.111111 1.000000,3.333333 
z"/>
<path fill="#553D89" opacity="1.000000" stroke="none" 
	d="
M218.666672,1.000001 
	C218.419601,1.152793 217.839218,1.305584 217.129410,1.229187 
	C217.444443,1.000000 217.888901,1.000000 218.666672,1.000001 
z"/>
<path fill="#553B87" opacity="1.000000" stroke="none" 
	d="
M226.000000,3.749997 
	C225.863419,3.699375 225.726822,3.398754 225.795120,3.049067 
	C226.000000,3.000000 226.000000,3.500000 226.000000,3.749997 
z"/>
<path fill="#FCFBFC" opacity="1.000000" stroke="none" 
	d="
M167.894043,87.595123 
	C166.772659,89.711311 165.640533,91.433975 164.508408,93.156647 
	C163.994476,92.915047 163.480560,92.673447 162.966629,92.431847 
	C162.966629,104.023041 162.966309,115.614227 162.966797,127.205421 
	C162.966995,131.850616 163.426270,136.551926 162.864807,141.128098 
	C161.985413,148.295441 165.805344,153.477493 169.051270,159.099258 
	C170.192139,161.075180 170.223862,163.691498 170.355896,166.465607 
	C157.953644,166.912613 145.957550,166.909454 133.961456,166.906281 
	C134.053772,164.573441 134.146088,162.240601 134.837006,159.550751 
	C136.289200,156.798477 137.142792,154.403229 138.402588,151.887207 
	C139.305557,150.668167 140.223526,149.573654 140.233292,148.471069 
	C140.320862,138.588379 140.387772,128.700607 140.126160,118.823189 
	C140.060196,116.332306 138.793320,113.873230 138.170197,111.372612 
	C138.262085,111.345688 138.209747,111.161476 138.170990,110.823013 
	C137.770477,109.948738 137.408707,109.412910 137.075073,108.926529 
	C137.103210,108.975975 137.201843,108.919273 137.139664,108.582733 
	C136.147064,107.028320 135.216629,105.810455 134.165680,104.675224 
	C134.045166,104.757851 134.210434,104.998878 134.239899,104.672035 
	C133.851624,103.873741 133.433899,103.402290 133.010788,102.960999 
	C133.005417,102.991158 133.064911,102.976456 132.923462,102.681442 
	C131.532333,101.641518 130.282639,100.896614 128.743210,99.927948 
	C120.702232,95.011948 112.638420,93.254486 103.639023,97.043457 
	C102.149208,97.615936 100.998489,98.242287 99.887177,98.834900 
	C99.926575,98.801170 99.858444,98.722939 99.535736,98.801987 
	C98.079552,99.883636 96.946068,100.886223 95.852966,101.917130 
	C95.893349,101.945457 95.949387,101.864265 95.626724,101.999039 
	C95.121124,102.734001 94.938179,103.334206 94.790390,103.763008 
	C94.825546,103.591614 94.482925,103.520508 94.163147,103.607231 
	C92.173698,106.766907 90.504044,109.839851 88.524719,113.157135 
	C87.961357,124.014214 87.885651,134.635696 87.364578,145.235291 
	C87.162033,149.355423 88.237099,152.273270 91.946312,154.441025 
	C93.212372,157.141342 94.470352,159.519211 95.728333,161.897079 
	C95.464317,163.323837 95.200302,164.750610 94.465622,166.587311 
	C81.667625,166.806015 69.340309,166.614746 57.012985,166.423492 
	C57.057533,165.241699 57.102077,164.059891 57.330009,162.236481 
	C59.992249,157.317352 64.418823,153.125229 64.610779,148.747437 
	C65.416107,130.380600 64.931488,111.958122 64.981773,93.556190 
	C64.988625,91.049423 64.082344,90.637909 62.051163,91.845367 
	C62.044044,91.886307 62.126095,91.899529 62.032722,91.649445 
	C61.646458,91.215416 61.353561,91.031471 61.060661,90.847534 
	C61.060661,90.847534 60.901947,90.400528 60.818752,89.930771 
	C60.523396,89.203354 60.311234,88.945702 60.099072,88.688042 
	C59.409779,85.636139 59.045425,82.460106 57.940193,79.567108 
	C56.825554,76.649467 57.890018,75.985512 60.435074,75.975105 
	C64.082413,75.960197 67.735825,75.802467 71.375320,75.962822 
	C74.863716,76.116501 76.089333,74.433792 76.111931,71.209442 
	C76.135056,67.908905 76.344368,64.609673 77.014374,61.032074 
	C78.437302,60.689880 79.318024,60.625484 80.198753,60.561089 
	C101.434166,60.646927 122.669571,60.733616 143.904984,60.817379 
	C146.211731,60.826477 148.518555,60.818607 151.734390,60.818607 
	C151.734390,64.599884 151.896179,68.006058 151.688766,71.389603 
	C151.482361,74.756294 152.581970,76.208237 156.160995,75.988251 
	C160.453125,75.724426 164.773865,75.925934 169.229736,75.925934 
	C170.977112,80.103004 170.127243,83.728043 167.894043,87.595123 
z"/>
<path fill="#835EC7" opacity="1.000000" stroke="none" 
	d="
M3.352036,161.924652 
	C2.999357,134.981445 2.998142,107.963806 2.997787,80.478821 
	C6.381630,79.884438 8.007751,81.757065 7.898795,84.895714 
	C7.745519,89.311066 10.149227,90.085167 13.879659,90.043266 
	C25.186436,89.916229 36.495579,90.008636 47.803772,89.994377 
	C51.756424,89.989388 55.829243,89.409737 58.835640,93.017403 
	C59.037437,93.259560 60.228672,92.677177 61.265259,92.215431 
	C61.755898,91.934891 61.940994,91.917206 62.126095,91.899529 
	C62.126095,91.899529 62.044044,91.886307 62.189663,92.251984 
	C62.563454,94.922630 62.977581,97.226685 62.988998,99.532730 
	C63.053238,112.509216 63.244507,125.492210 62.895260,138.459595 
	C62.778568,142.792206 66.706772,148.502106 59.734314,151.283051 
	C59.558292,151.353256 59.583767,151.894928 59.489471,152.208954 
	C58.606129,155.150589 57.717155,158.090530 56.829811,161.030960 
	C51.873985,161.095993 46.918308,161.197052 41.962303,161.216751 
	C36.054722,161.240250 30.146738,161.166977 24.239220,161.195557 
	C22.600346,161.203491 20.964266,161.492081 19.323860,161.534607 
	C14.117846,161.669601 8.910395,161.749207 3.352036,161.924652 
z"/>
<path fill="#835FC7" opacity="1.000000" stroke="none" 
	d="
M96.214233,161.916061 
	C94.470352,159.519211 93.212372,157.141342 91.906990,154.066635 
	C90.923454,151.137802 89.183228,148.904556 89.186745,146.674042 
	C89.204414,135.454361 89.677353,124.235382 90.141037,112.703560 
	C91.688728,109.434143 93.085831,106.477325 94.482925,103.520508 
	C94.482925,103.520508 94.825546,103.591614 94.988632,103.534119 
	C95.417610,102.939171 95.683495,102.401718 95.949387,101.864265 
	C95.949387,101.864265 95.893349,101.945457 96.225159,101.933487 
	C97.657455,100.855324 98.757950,99.789131 99.858444,98.722939 
	C99.858444,98.722939 99.926575,98.801170 100.230743,98.861298 
	C101.682640,98.313393 102.830376,97.705360 103.978119,97.097321 
	C112.638420,93.254486 120.702232,95.011948 128.851257,100.243202 
	C130.520996,101.513634 131.792953,102.245049 133.064911,102.976456 
	C133.064911,102.976456 133.005417,102.991158 133.112061,103.246368 
	C133.549286,104.000687 133.879868,104.499779 134.210434,104.998878 
	C134.210434,104.998878 134.045166,104.757851 134.169525,105.046814 
	C135.263214,106.530273 136.232529,107.724777 137.201843,108.919273 
	C137.201843,108.919273 137.103210,108.975975 137.163315,109.236481 
	C137.552200,110.051811 137.880966,110.606644 138.209747,111.161476 
	C138.209747,111.161476 138.262085,111.345688 138.169281,111.844246 
	C138.239090,113.990120 138.559158,115.639359 138.539032,117.284431 
	C138.397385,128.859436 138.185684,140.433563 137.996368,152.007980 
	C137.142792,154.403229 136.289200,156.798477 135.067398,159.238403 
	C122.286514,163.802063 109.397743,161.498932 96.214233,161.916061 
z"/>
<path fill="#8A6CBF" opacity="1.000000" stroke="none" 
	d="
M56.885361,161.317123 
	C57.717155,158.090530 58.606129,155.150589 59.489471,152.208954 
	C59.583767,151.894928 59.558292,151.353256 59.734314,151.283051 
	C66.706772,148.502106 62.778568,142.792206 62.895260,138.459595 
	C63.244507,125.492210 63.053238,112.509216 62.988998,99.532730 
	C62.977581,97.226685 62.563454,94.922630 62.196785,92.211044 
	C64.082344,90.637909 64.988625,91.049423 64.981773,93.556190 
	C64.931488,111.958122 65.416107,130.380600 64.610779,148.747437 
	C64.418823,153.125229 59.992249,157.317352 57.294930,161.882599 
	C57.031284,161.981323 56.986099,161.792313 56.885361,161.317123 
z"/>
<path fill="#634B95" opacity="1.000000" stroke="none" 
	d="
M134.311798,167.132858 
	C145.957550,166.909454 157.953644,166.912613 170.403839,166.871979 
	C170.857407,166.998352 170.856888,167.168518 170.868896,167.592590 
	C158.808334,167.684128 146.735229,167.521790 134.311798,167.132858 
z"/>
<path fill="#634B96" opacity="1.000000" stroke="none" 
	d="
M57.349651,166.689346 
	C69.340309,166.614746 81.667625,166.806015 94.454918,166.967590 
	C93.165726,167.292389 91.419754,167.933578 89.666870,167.953094 
	C80.747086,168.052368 71.824875,168.044662 62.905121,167.938889 
	C61.161877,167.918213 59.425735,167.298584 57.349651,166.689346 
z"/>
<path fill="#7F5BC9" opacity="1.000000" stroke="none" 
	d="
M80.716049,60.439980 
	C79.318024,60.625484 78.437302,60.689880 77.292267,60.689121 
	C78.153374,60.078609 79.278778,59.533253 81.202675,58.985329 
	C103.645828,58.973175 125.290489,58.963585 146.935150,58.953999 
	C147.585892,59.020126 148.236633,59.086254 148.887375,59.152382 
	C148.907227,59.349960 148.927078,59.547539 148.946930,59.745113 
	C147.766617,59.816929 146.586334,59.950455 145.405975,59.951347 
	C126.330521,59.965733 107.255043,59.951263 88.179626,59.980240 
	C85.864029,59.983757 83.548767,60.200787 80.716049,60.439980 
z"/>
<path fill="#8B61DD" opacity="1.000000" stroke="none" 
	d="
M146.782318,58.678753 
	C125.290489,58.963585 103.645828,58.973175 81.542038,58.971889 
	C82.692230,58.644432 84.299324,58.065010 85.911240,58.051231 
	C105.731262,57.881844 125.551979,57.790741 145.372650,57.717304 
	C145.790756,57.715752 146.210510,58.164711 146.782318,58.678753 
z"/>
<path fill="#8A6CBF" opacity="1.000000" stroke="none" 
	d="
M62.032722,91.649445 
	C61.940994,91.917206 61.755898,91.934891 61.292675,91.965790 
	C61.018688,91.790314 61.022823,91.601608 61.043808,91.130219 
	C61.353561,91.031471 61.646458,91.215416 62.032722,91.649445 
z"/>
<path fill="#8A6CBF" opacity="1.000000" stroke="none" 
	d="
M60.173698,88.913139 
	C60.311234,88.945702 60.523396,89.203354 60.717400,89.716347 
	C60.516445,89.711441 60.366142,89.433624 60.173698,88.913139 
z"/>
<path fill="#7F5BC0" opacity="1.000000" stroke="none" 
	d="
M174.503601,165.494659 
	C174.509918,165.513824 174.497299,165.475510 174.503601,165.494659 
z"/>
<path fill="#7962AD" opacity="1.000000" stroke="none" 
	d="
M89.990433,113.016159 
	C89.677353,124.235382 89.204414,135.454361 89.186745,146.674042 
	C89.183228,148.904556 90.923454,151.137802 91.898911,153.744186 
	C88.237099,152.273270 87.162033,149.355423 87.364578,145.235291 
	C87.885651,134.635696 87.961357,124.014214 88.813461,113.185005 
	C89.604729,112.984413 89.797585,113.000282 89.990433,113.016159 
z"/>
<path fill="#775DB2" opacity="1.000000" stroke="none" 
	d="
M138.402573,151.887207 
	C138.185684,140.433563 138.397385,128.859436 138.539032,117.284431 
	C138.559158,115.639359 138.239090,113.990120 138.077393,111.871170 
	C138.793320,113.873230 140.060196,116.332306 140.126160,118.823189 
	C140.387772,128.700607 140.320862,138.588379 140.233292,148.471069 
	C140.223526,149.573654 139.305557,150.668167 138.402573,151.887207 
z"/>
<path fill="#775FA1" opacity="1.000000" stroke="none" 
	d="
M90.141037,112.703560 
	C89.797585,113.000282 89.604729,112.984413 89.123131,112.940666 
	C90.504044,109.839851 92.173698,106.766907 94.163147,103.607231 
	C93.085831,106.477325 91.688728,109.434143 90.141037,112.703560 
z"/>
<path fill="#775FA1" opacity="1.000000" stroke="none" 
	d="
M99.535736,98.801987 
	C98.757950,99.789131 97.657455,100.855324 96.184769,101.905159 
	C96.946068,100.886223 98.079552,99.883636 99.535736,98.801987 
z"/>
<path fill="#775DB2" opacity="1.000000" stroke="none" 
	d="
M132.923462,102.681442 
	C131.792953,102.245049 130.520996,101.513634 129.140991,100.466965 
	C130.282639,100.896614 131.532333,101.641518 132.923462,102.681442 
z"/>
<path fill="#775DB2" opacity="1.000000" stroke="none" 
	d="
M137.139664,108.582733 
	C136.232529,107.724777 135.263214,106.530273 134.290054,104.964188 
	C135.216629,105.810455 136.147064,107.028320 137.139664,108.582733 
z"/>
<path fill="#775FA1" opacity="1.000000" stroke="none" 
	d="
M103.639023,97.043457 
	C102.830376,97.705360 101.682640,98.313393 100.191338,98.895027 
	C100.998489,98.242287 102.149208,97.615936 103.639023,97.043457 
z"/>
<path fill="#775DB2" opacity="1.000000" stroke="none" 
	d="
M138.170990,110.823013 
	C137.880966,110.606644 137.552200,110.051811 137.135178,109.187035 
	C137.408707,109.412910 137.770477,109.948738 138.170990,110.823013 
z"/>
<path fill="#775DB2" opacity="1.000000" stroke="none" 
	d="
M134.239899,104.672035 
	C133.879868,104.499779 133.549286,104.000687 133.117432,103.216217 
	C133.433899,103.402290 133.851624,103.873741 134.239899,104.672035 
z"/>
<path fill="#775FA1" opacity="1.000000" stroke="none" 
	d="
M95.626724,101.999039 
	C95.683495,102.401718 95.417610,102.939171 94.953476,103.705513 
	C94.938179,103.334206 95.121124,102.734001 95.626724,101.999039 
z"/>
</svg>